<mxfile host="app.diagrams.net" modified="2022-01-11T13:44:18.672Z" agent="5.0 (Windows NT 10.0; Win64; x64) AppleWebKit/537.36 (KHTML, like Gecko) Chrome/96.0.4664.110 Safari/537.36" etag="g2Rb0570lEm42NzMbhCc" version="16.2.4" type="github">
  <diagram id="aBgvcTB-1gFsGevtvpRC" name="Page-1">
    <mxGraphModel dx="1038" dy="556" grid="1" gridSize="10" guides="1" tooltips="1" connect="1" arrows="1" fold="1" page="1" pageScale="1" pageWidth="827" pageHeight="1169" math="0" shadow="0">
      <root>
        <mxCell id="0" />
        <mxCell id="1" parent="0" />
        <mxCell id="POoI5ozmEgEYXUjUha52-2" value="" style="edgeStyle=orthogonalEdgeStyle;rounded=0;orthogonalLoop=1;jettySize=auto;html=1;" parent="1" source="E5jlOEy8JRU2-99_6qux-1" target="POoI5ozmEgEYXUjUha52-1" edge="1">
          <mxGeometry relative="1" as="geometry" />
        </mxCell>
        <mxCell id="E5jlOEy8JRU2-99_6qux-1" value="按时附带链接算法大佬框架时代峰峻了阿萨德放假阿萨德放假l" style="rounded=1;whiteSpace=wrap;html=1;" parent="1" vertex="1">
          <mxGeometry x="70" y="140" width="120" height="60" as="geometry" />
        </mxCell>
        <mxCell id="POoI5ozmEgEYXUjUha52-1" value="jjj" style="whiteSpace=wrap;html=1;rounded=1;" parent="1" vertex="1">
          <mxGeometry x="270" y="140" width="120" height="60" as="geometry" />
        </mxCell>
      </root>
    </mxGraphModel>
  </diagram>
</mxfile>
